<svg version="1.2" xmlns="http://www.w3.org/2000/svg" viewBox="0 0 252 151" width="252" height="151"><style>tspan{white-space:pre}.a{opacity:.1;fill:#fff}.b{font-size: 22px;line-height: 30px;fill: #83beff;font-weight: 600;font-family: "Muli-SemiBold", "Muli"}.c{font-size: 14px;line-height: 18px;fill: #9ccbff;font-weight: 400;font-family: "Muli", "Muli"}.d{fill:#9ccbff}.e{font-size: 16px;line-height: 18px;fill: #ffffff;font-weight: 400;font-family: "Muli", "Muli"}.f{fill:#ffcb05}</style><path class="a" d="m251 0h1v151h-1z"/><text style="transform:matrix(1,0,0,1,0,15)" ><tspan x="0" y="0" class="b">C</tspan><tspan  y="0" class="b">orporate Address
</tspan></text><text style="transform:matrix(1,0,0,1,36.188,83.984)" ><tspan x="0" y="10.2" class="c">S</tspan><tspan  y="10.2" class="c">.P. Road, Begumpet
</tspan><tspan x="0" y="28.2" class="c">Hyderabad - 500003,
</tspan><tspan x="0" y="46.2" class="c">Telangana, INDIA. 
</tspan></text><path fill-rule="evenodd" class="d" d="m25.8 116.7q-0.3 0.3-0.6 0.3-0.2 0-0.4-0.1l-5.7-2.4-5.8 2.4q-0.3 0.1-0.6 0l-5.8-2.4-5.7 2.4c-0.3 0.1-0.7 0.1-1-0.2-0.2-0.2-0.3-0.6-0.1-0.9l4.5-9.2q0.2-0.3 0.5-0.4l2.3-1-4-6.3q0 0 0 0c-0.8-1.5-1.2-3.1-1.2-4.8 0-2.7 1.1-5.2 3.1-7.2 2.1-1.9 4.7-3 7.5-3 3-0.1 5.7 1 7.8 2.9 2.1 2 3.2 4.6 3.2 7.4q0 2.5-1.2 4.7 0 0 0 0l-4 6.3 2.3 1q0.3 0.1 0.5 0.4l4.5 9.2c0.2 0.3 0.1 0.7-0.1 0.9zm-13.5-6.8c0.2 0.3 0.6 0.4 0.7 0.4 0.1 0 0.5-0.1 0.7-0.4l7.4-11.8q1-1.9 1-3.9c0-2.4-1-4.6-2.7-6.2-1.8-1.6-4.1-2.5-6.5-2.5-4.9 0.1-9 3.9-9 8.6q0 2.1 1 4zm11.1 4.6l-3.4-6.9-2.2-1-2.6 4.1c-0.4 0.8-1.3 1.2-2.2 1.2-0.9 0-1.7-0.4-2.2-1.2l-2.5-4.1-2.2 1-3.5 6.9 4-1.6q0.3-0.2 0.7 0l5.7 2.4 5.8-2.4q0.3-0.2 0.7 0zm-6.5-20.4c0 2.1-1.8 3.7-3.9 3.7-2.2 0-3.9-1.6-3.9-3.7 0-2.1 1.7-3.7 3.9-3.7 2.1 0 3.9 1.6 3.9 3.7zm-1.7 0c0-1.2-1-2.1-2.2-2.1-1.3 0-2.2 0.9-2.2 2.1 0 1.2 0.9 2.1 2.2 2.1 1.2 0 2.2-0.9 2.2-2.1z"/><text style="transform:matrix(1,0,0,1,0,52)" ><tspan x="0" y="0" class="e" dx="0" >H</tspan><tspan  y="0" class="e" dx="0 0 0 0 0 0 0 0 0 0 0 0 0 0 0 0 0 0 0 0 0 0 0" >omeocare International
</tspan><tspan x="0" y="18" class="e" dx="0 0 0 0 0 0 0 0 0 0" >Pvt. Ltd.
</tspan></text><path class="f" d="m1 26h45v2h-45z"/></svg>