<svg version="1.2" xmlns="http://www.w3.org/2000/svg" viewBox="0 0 180 154" width="180" height="154"><style>tspan{white-space:pre}.a{opacity:.1;fill:#fff}.b{font-size: 22px;line-height: 30px;fill: #83beff;font-weight: 600;font-family: "Muli-SemiBold", "Muli"}.c{fill:#ffcb05}.d{font-size: 14px;line-height: 25px;fill: #ffffff;font-weight: 300;font-family: "Muli-Light", "Muli"}.e{fill:#1466be}</style><path class="a" d="m179 0h1v151h-1z"/><text style="transform:matrix(1,0,0,1,0,15)" ><tspan x="0" y="0" class="b">B</tspan><tspan  y="0" class="b">ranches
</tspan></text><path class="c" d="m1 26h45v2h-45z"/><text style="transform:matrix(1,0,0,1,18,51)" ><tspan x="0" y="0" class="d">T</tspan><tspan  y="0" class="d">elangana
</tspan><tspan x="0" y="25" class="d">Andhra Pradesh
</tspan><tspan x="0" y="50" class="d">Karnataka
</tspan><tspan x="0" y="75" class="d">Tamilnadu
</tspan><tspan x="0" y="100" class="d">Puducherry
</tspan></text><path class="e" d="m6 42c2.2 0 4 1.8 4 4 0 2.2-1.8 4-4 4-2.2 0-4-1.8-4-4 0-2.2 1.8-4 4-4z"/><path class="e" d="m6 67c2.2 0 4 1.8 4 4 0 2.2-1.8 4-4 4-2.2 0-4-1.8-4-4 0-2.2 1.8-4 4-4z"/><path class="e" d="m6 92c2.2 0 4 1.8 4 4 0 2.2-1.8 4-4 4-2.2 0-4-1.8-4-4 0-2.2 1.8-4 4-4z"/><path class="e" d="m6 117c2.2 0 4 1.8 4 4 0 2.2-1.8 4-4 4-2.2 0-4-1.8-4-4 0-2.2 1.8-4 4-4z"/><path class="e" d="m6 142c2.2 0 4 1.8 4 4 0 2.2-1.8 4-4 4-2.2 0-4-1.8-4-4 0-2.2 1.8-4 4-4z"/></svg>