<svg version="1.2" xmlns="http://www.w3.org/2000/svg" viewBox="0 0 256 151" width="256" height="151"><style>tspan{white-space:pre}.a{opacity:.1;fill:#fff}.b{font-size: 22px;line-height: 30px;fill: #83beff;font-weight: 600;font-family: "Muli-SemiBold", "Muli"}.c{font-size: 18px;line-height: 30px;fill: #9ccbff;font-weight: 300;font-family: "Muli-Light", "Muli"}.d{font-size: 18px;line-height: 30px;fill: #ffffff;font-weight: 300;font-family: "Muli-Light", "Muli"}.e{font-size: 16px;line-height: 30px;fill: #9ccbff;font-weight: 300;font-family: "Muli-Light", "Muli"}.f{font-size: 16px;line-height: 30px;fill: #ffffff;font-weight: 300;font-family: "Muli-Light", "Muli"}.g{fill:#ffcb05}.h{font-size: 10px;line-height: 42px;fill: #e3f5ff;font-weight: 300;font-family: "Montserrat-Light", "Montserrat"}.i{fill:#1e74d1}.j{fill:#fff}</style><path class="a" d="m255 0h1v151h-1z"/><text style="transform:matrix(1,0,0,1,4,15)" ><tspan x="0" y="0" class="b">C</tspan><tspan  y="0" class="b">ontact Us
</tspan></text><text style="transform:matrix(1,0,0,1,5,53)" ><tspan x="0" y="0" class="c">T</tspan><tspan  y="0" class="c">oll Free:</tspan><tspan  y="0" class="d"> 1800 102 2202
</tspan></text><text style="transform:matrix(1,0,0,1,5,74)" ><tspan x="0" y="0" class="e" dx="0" >E</tspan><tspan  y="0" class="e" dx="0 0 0 0 0 0" >mail: </tspan><tspan  y="0" class="f" dx="0 0 0 0 0 0 0 0 0 0 0 0 0 0 0 0 0 0 0 0 0" >online@homeocare.in 
</tspan></text><path class="g" d="m5 26h45v2h-45z"/><text style="transform:matrix(1,0,0,1,5,102)" ><tspan x="0" y="0" class="h" dx="0" >C</tspan><tspan  y="0" class="h" dx="0 0 0 0 0 0 0 0 0 0 0 0 0 0 0" >onnect With Us
</tspan></text><path class="i" d="m19.5 109c8 0 14.5 6.5 14.5 14.5 0 8-6.5 14.5-14.5 14.5-8 0-14.5-6.5-14.5-14.5 0-8 6.5-14.5 14.5-14.5z"/><path class="j" d="m20.5 121.1v-1.9c0-0.5 0.5-1 1-1h1v-2.3h-2c-1.7 0-3 1.2-3 2.8v2.4h-2.1v2.3h2.1v7.6h3v-7.6h2l1-2.3z"/><path class="i" d="m53.2 109c8 0 14.5 6.5 14.5 14.5 0 8-6.5 14.5-14.5 14.5-8.1 0-14.6-6.5-14.6-14.5 0-8 6.5-14.5 14.6-14.5z"/><path class="j" d="m60.3 118.5q-0.9 0.5-2 0.7c-0.5-0.6-1.3-0.9-2.2-0.9-1.8 0-3.2 1.3-3.2 2.9q0 0.4 0.1 0.7c-2.6-0.1-4.8-1.3-6.4-3.1q-0.4 0.7-0.4 1.5c0 1 0.5 1.9 1.4 2.5q-0.8-0.1-1.4-0.4c0 1.5 1 2.7 2.5 2.9q-0.4 0.1-0.9 0.1-0.3 0-0.5 0c0.4 1.2 1.5 2 2.9 2-1.1 0.8-2.4 1.3-3.9 1.3q-0.4 0-0.7 0c1.3 0.8 3 1.3 4.7 1.3 5.8 0 8.9-4.5 8.9-8.4v-0.4q0.9-0.6 1.5-1.5-0.8 0.3-1.8 0.4c0.7-0.3 1.2-0.9 1.4-1.6z"/><path class="i" d="m86.9 109c8 0 14.5 6.5 14.5 14.5 0 8-6.5 14.5-14.5 14.5-8.1 0-14.6-6.5-14.6-14.5 0-8 6.5-14.5 14.6-14.5z"/><path fill-rule="evenodd" class="j" d="m95 122.2q0-0.5-0.1-1.2 0-0.7-0.2-1.2-0.1-0.7-0.6-1.1-0.5-0.4-1.1-0.5-2-0.2-6-0.2-4 0-6 0.2-0.6 0.1-1.1 0.5-0.5 0.4-0.6 1.1-0.2 0.5-0.2 1.2-0.1 0.7-0.1 1.2 0 0.5 0 1.3 0 0.8 0 1.3 0 0.5 0.1 1.2 0 0.7 0.2 1.2 0.1 0.7 0.6 1.1 0.5 0.4 1.1 0.5 2 0.2 6 0.2 4 0 6-0.2 0.6-0.1 1.1-0.5 0.5-0.4 0.6-1.1 0.2-0.5 0.2-1.2 0.1-0.7 0.1-1.2 0-0.5 0-1.3 0-0.8 0-1.3zm-4.8 1.8l-4.6 2.7q-0.1 0.1-0.3 0.1-0.1 0-0.3-0.1-0.3-0.1-0.3-0.4v-5.6q0-0.3 0.3-0.4 0.3-0.2 0.6 0l4.6 2.7q0.2 0.2 0.2 0.5 0 0.3-0.2 0.5z"/><path class="i" d="m120.5 109c8.1 0 14.6 6.5 14.6 14.5 0 8-6.5 14.5-14.6 14.5-8 0-14.5-6.5-14.5-14.5 0-8 6.5-14.5 14.5-14.5z"/><path fill-rule="evenodd" class="j" d="m128.1 120.1v6.8c0 2.3-1.9 4.2-4.2 4.2h-6.8c-2.3 0-4.1-1.9-4.1-4.2v-6.8c0-2.3 1.8-4.2 4.1-4.2h6.8c2.3 0 4.2 1.9 4.2 4.2zm-1.4 6.8v-6.8c0-1.6-1.3-2.8-2.8-2.8h-6.8c-1.5 0-2.8 1.2-2.8 2.8v6.8c0 1.6 1.3 2.8 2.8 2.8h6.8c1.5 0 2.8-1.2 2.8-2.8zm-2.3-3.4c0 2.2-1.7 3.9-3.9 3.9-2.1 0-3.9-1.7-3.9-3.9 0-2.2 1.8-3.9 3.9-3.9 2.2 0 3.9 1.7 3.9 3.9zm-1.3 0c0-1.4-1.2-2.6-2.6-2.6-1.4 0-2.5 1.2-2.5 2.6 0 1.4 1.1 2.6 2.5 2.6 1.4 0 2.6-1.2 2.6-2.6zm2.2-4.8c0.1 0.2 0.2 0.5 0.2 0.7 0 0.3-0.1 0.5-0.2 0.7-0.2 0.2-0.5 0.3-0.7 0.3-0.3 0-0.5-0.1-0.7-0.3-0.2-0.2-0.3-0.4-0.3-0.7 0-0.2 0.1-0.5 0.3-0.7 0.2-0.1 0.4-0.3 0.7-0.3 0.2 0 0.5 0.2 0.7 0.3z"/></svg>