<svg version="1.2" xmlns="http://www.w3.org/2000/svg" viewBox="0 0 282 154" width="282" height="154"><style>tspan{white-space:pre}.a{font-size: 22px;line-height: 30px;fill: #83beff;font-weight: 600;font-family: "Muli-SemiBold", "Muli"}.b{fill:#ffcb05}.c{font-size: 14px;line-height: 25px;fill: #ffffff;font-weight: 300;font-family: "Muli-Light", "Muli"}.d{fill:#1466be}</style><text style="transform:matrix(1,0,0,1,0,15)" ><tspan x="0" y="0" class="a">Q</tspan><tspan  y="0" class="a">uick Links
</tspan></text><path class="b" d="m1 26h45v2h-45z"/><text style="transform:matrix(1,0,0,1,18,51)" ><tspan x="0" y="0" class="c">H</tspan><tspan  y="0" class="c">appy Patients
</tspan><tspan x="0" y="25" class="c">Feedback
</tspan><tspan x="0" y="50" class="c">Careers
</tspan><tspan x="0" y="75" class="c">FAQs
</tspan><tspan x="0" y="100" class="c">Quality Policy
</tspan></text><path class="d" d="m6 42c2.2 0 4 1.8 4 4 0 2.2-1.8 4-4 4-2.2 0-4-1.8-4-4 0-2.2 1.8-4 4-4z"/><path class="d" d="m6 67c2.2 0 4 1.8 4 4 0 2.2-1.8 4-4 4-2.2 0-4-1.8-4-4 0-2.2 1.8-4 4-4z"/><path class="d" d="m6 92c2.2 0 4 1.8 4 4 0 2.2-1.8 4-4 4-2.2 0-4-1.8-4-4 0-2.2 1.8-4 4-4z"/><path class="d" d="m6 117c2.2 0 4 1.8 4 4 0 2.2-1.8 4-4 4-2.2 0-4-1.8-4-4 0-2.2 1.8-4 4-4z"/><path class="d" d="m6 142c2.2 0 4 1.8 4 4 0 2.2-1.8 4-4 4-2.2 0-4-1.8-4-4 0-2.2 1.8-4 4-4z"/><text style="transform:matrix(1,0,0,1,180,51)" ><tspan x="0" y="0" class="c">P</tspan><tspan  y="0" class="c">hoto Gallery
</tspan><tspan x="0" y="25" class="c">Videos
</tspan><tspan x="0" y="50" class="c">Events
</tspan><tspan x="0" y="75" class="c">Term of Service
</tspan><tspan x="0" y="100" class="c">Sitemap
</tspan></text><path class="d" d="m168 42c2.2 0 4 1.8 4 4 0 2.2-1.8 4-4 4-2.2 0-4-1.8-4-4 0-2.2 1.8-4 4-4z"/><path class="d" d="m168 67c2.2 0 4 1.8 4 4 0 2.2-1.8 4-4 4-2.2 0-4-1.8-4-4 0-2.2 1.8-4 4-4z"/><path class="d" d="m168 92c2.2 0 4 1.8 4 4 0 2.2-1.8 4-4 4-2.2 0-4-1.8-4-4 0-2.2 1.8-4 4-4z"/><path class="d" d="m168 117c2.2 0 4 1.8 4 4 0 2.2-1.8 4-4 4-2.2 0-4-1.8-4-4 0-2.2 1.8-4 4-4z"/><path class="d" d="m168 142c2.2 0 4 1.8 4 4 0 2.2-1.8 4-4 4-2.2 0-4-1.8-4-4 0-2.2 1.8-4 4-4z"/></svg>