<svg version="1.2" xmlns="http://www.w3.org/2000/svg" viewBox="0 0 26 34" width="26" height="34"><style>.a{fill:#9ccbff}</style><path fill-rule="evenodd" class="a" d="m25.8 33.7q-0.3 0.3-0.6 0.3-0.2 0-0.4-0.1l-5.7-2.4-5.8 2.4q-0.3 0.1-0.6 0l-5.8-2.4-5.7 2.4c-0.3 0.1-0.7 0.1-1-0.2-0.2-0.2-0.3-0.6-0.1-0.9l4.5-9.2q0.2-0.3 0.5-0.4l2.3-1-4-6.3q0 0 0 0c-0.8-1.5-1.2-3.1-1.2-4.8 0-2.7 1.1-5.2 3.1-7.2 2.1-1.9 4.7-3 7.5-3 3-0.1 5.7 1 7.8 2.9 2.1 2 3.2 4.6 3.2 7.4q0 2.5-1.2 4.7 0 0 0 0l-4 6.3 2.3 1q0.3 0.1 0.5 0.4l4.5 9.2c0.2 0.3 0.1 0.7-0.1 0.9zm-13.5-6.8c0.2 0.3 0.6 0.4 0.7 0.4 0.1 0 0.5-0.1 0.7-0.4l7.4-11.8q1-1.9 1-3.9c0-2.4-1-4.6-2.7-6.2-1.8-1.6-4.1-2.5-6.5-2.5-4.9 0.1-9 3.9-9 8.6q0 2.1 1 4zm11.1 4.6l-3.4-6.9-2.2-1-2.6 4.1c-0.4 0.8-1.3 1.2-2.2 1.2-0.9 0-1.7-0.4-2.2-1.2l-2.5-4.1-2.2 1-3.5 6.9 4-1.6q0.3-0.2 0.7 0l5.7 2.4 5.8-2.4q0.3-0.2 0.7 0zm-6.5-20.4c0 2.1-1.8 3.7-3.9 3.7-2.2 0-3.9-1.6-3.9-3.7 0-2.1 1.7-3.7 3.9-3.7 2.1 0 3.9 1.6 3.9 3.7zm-1.7 0c0-1.2-1-2.1-2.2-2.1-1.3 0-2.2 0.9-2.2 2.1 0 1.2 0.9 2.1 2.2 2.1 1.2 0 2.2-0.9 2.2-2.1z"/></svg>