<svg version="1.2" xmlns="http://www.w3.org/2000/svg" viewBox="0 0 18 14" width="18" height="14"><style>.a{fill:#00c0d0}</style><path class="a" d="m9 2.8l-5.7 5.2q0 0 0 0 0 0.1 0 0.1v5.2q0 0.3 0.1 0.5 0.2 0.2 0.5 0.2h3.8v-4.2h2.6v4.2h3.8q0.3 0 0.5-0.2 0.1-0.2 0.1-0.5v-5.2q0-0.1 0-0.1zm8 4l-2.2-2v-4.4q0-0.2-0.1-0.3-0.1-0.1-0.2-0.1h-2q-0.1 0-0.2 0.1-0.1 0.1-0.1 0.3v2.1l-2.4-2.2q-0.3-0.3-0.8-0.3-0.4 0-0.7 0.3l-7.2 6.5q-0.1 0.1-0.1 0.2 0 0.2 0.1 0.3l0.6 0.8q0.1 0.1 0.2 0.1 0.1 0 0.2 0l6.9-6.4 6.9 6.4q0.1 0 0.2 0h0.1q0.1 0 0.2-0.1l0.6-0.8q0.1-0.1 0.1-0.3 0-0.1-0.1-0.2z"/></svg>