<svg version="1.2" xmlns="http://www.w3.org/2000/svg" viewBox="0 0 13 10" width="13" height="10"><style>.a{fill:#fff}</style><path class="a" d="m12.7 0.2q-0.8 0.4-1.7 0.6c-0.5-0.5-1.2-0.8-2-0.8-1.5 0-2.7 1.1-2.7 2.6q0 0.3 0.1 0.5c-2.2-0.1-4.2-1.1-5.5-2.6q-0.4 0.5-0.4 1.3c0 0.8 0.5 1.6 1.2 2.1q-0.7-0.1-1.2-0.3c0 1.2 0.9 2.2 2.1 2.5q-0.3 0.1-0.7 0.1-0.2 0-0.5-0.1c0.4 1 1.4 1.8 2.5 1.8-0.9 0.7-2 1.1-3.3 1.1q-0.3 0-0.6-0.1c1.1 0.8 2.5 1.2 4.1 1.2 4.9 0 7.6-3.9 7.6-7.3v-0.3q0.8-0.5 1.3-1.3-0.7 0.3-1.5 0.4c0.5-0.3 1-0.8 1.2-1.4z"/></svg>