<svg version="1.2" xmlns="http://www.w3.org/2000/svg" viewBox="0 0 14 9" width="14" height="9"><style>.a{fill:#fff}</style><path fill-rule="evenodd" class="a" d="m14 3.4q0-0.3-0.1-0.9 0-0.6-0.1-1.1-0.1-0.5-0.5-0.8-0.4-0.4-0.9-0.4-1.6-0.2-4.9-0.2-3.3 0-4.9 0.2-0.5 0-0.9 0.4-0.4 0.3-0.5 0.8-0.1 0.5-0.1 1.1-0.1 0.6-0.1 0.9 0 0.4 0 1.1 0 0.7 0 1.1 0 0.3 0.1 0.9 0 0.6 0.1 1.1 0.1 0.5 0.5 0.8 0.4 0.4 0.9 0.4 1.6 0.2 4.9 0.2 3.3 0 4.9-0.2 0.5 0 0.9-0.4 0.4-0.3 0.5-0.8 0.1-0.5 0.1-1.1 0.1-0.6 0.1-0.9 0-0.4 0-1.1 0-0.7 0-1.1zm-3.9 1.5l-3.7 2.2q-0.1 0.1-0.3 0.1-0.1 0-0.2 0-0.3-0.2-0.3-0.4v-4.6q0-0.2 0.3-0.3 0.2-0.2 0.5 0l3.7 2.2q0.2 0.1 0.2 0.4 0 0.3-0.2 0.4z"/></svg>