<svg version="1.2" xmlns="http://www.w3.org/2000/svg" viewBox="0 0 13 13" width="13" height="13"><style>.a{fill:#fff}</style><path fill-rule="evenodd" class="a" d="m13 3.6v5.8c0 2-1.6 3.6-3.6 3.6h-5.8c-2 0-3.6-1.6-3.6-3.6v-5.8c0-2 1.6-3.6 3.6-3.6h5.8c2 0 3.6 1.6 3.6 3.6zm-1.2 5.8v-5.8c0-1.4-1-2.5-2.4-2.5h-5.8c-1.4 0-2.4 1.1-2.4 2.5v5.8c0 1.4 1 2.5 2.4 2.5h5.8c1.4 0 2.4-1.1 2.4-2.5zm-2-2.9c0 1.9-1.5 3.4-3.3 3.4-1.8 0-3.3-1.5-3.3-3.4 0-1.9 1.5-3.4 3.3-3.4 1.8 0 3.3 1.5 3.3 3.4zm-1.1 0c0-1.2-1-2.2-2.2-2.2-1.2 0-2.2 1-2.2 2.2 0 1.2 1 2.2 2.2 2.2 1.2 0 2.2-1 2.2-2.2zm1.9-4.1q0.2 0.2 0.2 0.6 0 0.3-0.2 0.6-0.3 0.2-0.6 0.2-0.4 0-0.6-0.2-0.3-0.3-0.3-0.6 0-0.4 0.3-0.6 0.2-0.2 0.6-0.3 0.3 0.1 0.6 0.3z"/></svg>