<svg version="1.2" xmlns="http://www.w3.org/2000/svg" viewBox="0 0 18 13" width="18" height="13"><style>.a{fill:#fff}</style><path class="a" d="m0.4 1c2.4 2.1 6.8 5.6 8.1 6.7q0.2 0.2 0.5 0.2 0.3 0 0.5-0.2c1.3-1.1 5.7-4.6 8.1-6.7 0.2-0.1 0.2-0.3 0.1-0.5-0.3-0.3-0.7-0.5-1.2-0.5h-15c-0.5 0-0.9 0.2-1.2 0.5-0.1 0.2-0.1 0.4 0.1 0.5zm17.4 1.1c-0.2 0-0.3 0-0.4 0.1-1.6 1.3-3.8 3.1-5.4 4.4q-0.1 0.1-0.1 0.3 0 0.1 0.1 0.3c1.5 1.1 3.8 2.7 5.4 3.8q0.1 0.1 0.2 0.1 0.1 0 0.2 0 0.2-0.2 0.2-0.4v-8.2c0-0.2-0.1-0.3-0.2-0.4zm-17.2 8.9c1.6-1.1 3.9-2.7 5.4-3.8q0.1-0.2 0.1-0.3 0-0.2-0.1-0.3c-1.6-1.3-3.8-3.1-5.4-4.4-0.1-0.1-0.2-0.1-0.4-0.1-0.1 0.1-0.2 0.2-0.2 0.4v8.2q0 0.2 0.2 0.4 0.1 0 0.2 0 0.1 0 0.2-0.1zm16.9 1c-1.5-1.1-4.4-3.1-6.1-4.4-0.2-0.2-0.4-0.2-0.5 0q-0.5 0.4-0.9 0.7c-0.6 0.5-1.4 0.5-2 0q-0.4-0.3-0.9-0.7c-0.1-0.2-0.3-0.2-0.5 0-1.7 1.3-4.6 3.3-6.1 4.4q-0.2 0.1-0.2 0.3 0 0.1 0.1 0.2c0.3 0.3 0.7 0.5 1.1 0.5h15c0.4 0 0.8-0.2 1.1-0.5q0.1-0.1 0.1-0.2 0-0.2-0.2-0.3z"/></svg>