<svg version="1.2" xmlns="http://www.w3.org/2000/svg" viewBox="0 0 23 23" width="23" height="23"><defs><filter x="-50%" y="-50%" width="200%" height="200%" id="f1" ><feDropShadow dx="-1.2246467991473532e-16" dy="2" stdDeviation="1.6666666666666667" flood-color="#003c43" flood-opacity=".3"/></filter></defs><style>.a{filter:url(#f1);fill:#fff}</style><path class="a" d="m15.4 11.9c-0.5-0.5-1.1-0.5-1.6 0q-0.5 0.6-1.1 1.1-0.1 0.2-0.3 0.1c-0.2-0.1-0.5-0.2-0.7-0.4-1.1-0.7-2-1.5-2.8-2.5-0.4-0.5-0.8-1-1-1.6-0.1-0.1-0.1-0.2 0-0.3q0.6-0.6 1.1-1.1c0.6-0.5 0.6-1.1 0-1.6q-0.4-0.5-0.8-0.9-0.5-0.5-0.9-0.9c-0.5-0.5-1.2-0.5-1.6 0q-0.6 0.5-1.2 1.1-0.5 0.5-0.5 1.2c-0.1 0.8 0.1 1.5 0.4 2.2 0.5 1.5 1.4 2.9 2.4 4.1q2 2.4 4.9 3.8c0.9 0.4 1.8 0.8 2.8 0.8 0.6 0.1 1.2-0.1 1.7-0.6 0.3-0.4 0.7-0.7 1-1.1 0.5-0.5 0.5-1.1 0-1.6q-0.9-0.9-1.8-1.8zm-0.6-2.5l1.2-0.2c-0.2-1-0.7-2-1.5-2.8-0.8-0.8-1.8-1.3-2.9-1.4l-0.2 1.1c0.9 0.2 1.7 0.6 2.3 1.2 0.6 0.6 1 1.3 1.1 2.1zm1.8-5c-1.3-1.3-3-2.2-4.9-2.4l-0.1 1.1c1.6 0.3 3.1 1 4.2 2.1 1.1 1.1 1.8 2.5 2.1 4l1.1-0.2c-0.3-1.7-1.1-3.3-2.4-4.6z"/></svg>