<svg version="1.2" xmlns="http://www.w3.org/2000/svg" viewBox="0 0 18 13" width="18" height="13"><defs><linearGradient id="P" gradientUnits="userSpaceOnUse"/><linearGradient id="g1" x1="2" y1="0" x2="15.1" y2="13" href="#P"><stop stop-color="#02cfe4"/><stop offset="1" stop-color="#1673dc"/></linearGradient></defs><style>.a{fill:url(#g1)}</style><path class="a" d="m0.2 6.2l6.8-5.9q0.4-0.3 0.8-0.3h0.1c0.8 0 1.4 0.6 1.4 1.3 0 0.4-0.2 0.8-0.5 1.1l-3.2 2.7h10c0.8 0 1.5 0.6 1.5 1.4 0 0.8-0.7 1.5-1.5 1.5h-10l3.2 2.6c0.3 0.3 0.5 0.7 0.5 1.1 0 0.7-0.6 1.3-1.4 1.3h-0.1q-0.4 0-0.8-0.3l-6.8-5.9q-0.2-0.1-0.2-0.3 0-0.2 0.2-0.3z"/></svg>