<svg version="1.2" xmlns="http://www.w3.org/2000/svg" viewBox="0 0 17 13" width="17" height="13"><defs><linearGradient id="P" gradientUnits="userSpaceOnUse"/><linearGradient id="g1" x1="2" y1="0" x2="15" y2="13" href="#P"><stop stop-color="#02cfe4"/><stop offset="1" stop-color="#1673dc"/></linearGradient></defs><style>.a{fill:url(#g1)}</style><path class="a" d="m16.9 6.2l-6.9-5.9q-0.3-0.3-0.8-0.3h-0.1c-0.7 0-1.3 0.6-1.3 1.3 0 0.4 0.1 0.8 0.5 1.1l3.1 2.7h-10c-0.8 0-1.4 0.6-1.4 1.4 0 0.8 0.6 1.5 1.4 1.5h10l-3.1 2.6c-0.4 0.3-0.5 0.7-0.5 1.1 0 0.7 0.6 1.3 1.3 1.3h0.1q0.5 0 0.8-0.3l6.9-5.9q0.1-0.1 0.1-0.3 0-0.2-0.1-0.3z"/></svg>