<svg version="1.2" xmlns="http://www.w3.org/2000/svg" viewBox="0 0 395 338" width="395" height="338"><defs><filter x="-50%" y="-50%" width="200%" height="200%" id="f1" ><feDropShadow dx="-2.4492935982947064e-16" dy="4" stdDeviation="5.833333333333334" flood-color="#1f345d" flood-opacity=".1"/></filter><linearGradient id="P" gradientUnits="userSpaceOnUse"/><linearGradient id="g1" x1="172" y1="69" x2="222" y2="119" href="#P"><stop stop-color="#02cfe4"/><stop offset="1" stop-color="#1673dc"/></linearGradient><filter x="-50%" y="-50%" width="200%" height="200%" id="f2" ><feDropShadow dx="-1.2246467991473532e-16" dy="2" stdDeviation="4.166666666666667" flood-color="#2b4984" flood-opacity=".1"/></filter></defs><style>tspan{white-space:pre}.a{filter:url(#f1);fill:#fff}.b{font-size: 15px;line-height: 22px;fill: #333333;font-weight: 300;font-family: "Muli-Light", "Muli"}.c{font-size: 20px;line-height: 22px;text-transform: uppercase;fill: #014d9f;font-weight: 600;font-family: "Muli-SemiBold", "Muli"}.d{fill:#3d90ef;stroke:#00cade;stroke-linejoin:round;stroke-opacity:.5;stroke-width:3}.e{fill:url(#g1)}.f{filter:url(#f2);fill:#fff}.g{font-size: 12px;line-height: 22px;text-transform: uppercase;fill: #00b6cf;font-weight: 400;font-family: "Muli", "Muli"}</style><path class="a" d="m21 12h353c2.8 0 5 2.2 5 5v286c0 2.8-2.2 5-5 5h-353c-2.8 0-5-2.2-5-5v-286c0-2.8 2.2-5 5-5z"/><text style="transform:matrix(1,0,0,1,31.777,205)" ><tspan x="9.1" y="11" class="b" dx="0" >T</tspan><tspan  y="11" class="b" dx="0 0 0 0 0 0 0 0 0 0 0 0 0 0 0 0 0 0 0 0 0 0 0 0 0 0 0 0 0 0 0 0 0 0 0 0 0 0 0 0 0 0 0 0 0" >hyroid disorders can be easily controlled by </tspan><tspan x="12.1" y="33" class="b" dx="0 0 0 0 0 0 0 0 0 0 0 0 0 0 0 0 0 0 0 0 0 0 0 0 0 0 0 0 0 0 0 0 0 0 0 0 0 0 0 0 0 0" >Homeopathic treatments which are right to </tspan><tspan x="30.1" y="55" class="b" dx="0 0 0 0 0 0 0 0 0 0 0 0 0 0 0 0 0 0 0 0 0 0 0 0 0 0 0 0 0 0 0 0 0 0 0 0 0 0 0 0 0" >opt because it will have no side effects
</tspan></text><text style="transform:matrix(1,0,0,1,197,185)" ><tspan x="-46.3" y="0" class="c" dx="0" >T</tspan><tspan  y="0" class="c" dx="0 1 1 1 1 1 1" >HYROID
</tspan></text><path class="d" d="m197 37c31.5 0 57 25.5 57 57 0 31.5-25.5 57-57 57-31.5 0-57-25.5-57-57 0-31.5 25.5-57 57-57z"/><path class="e" d="m181.3 77.9l0.1 0.1q0.4 0.3 0.7 0.6 1.3 1.3 2.6 2.7v0.1q0.1 0.2 0.3 0.4 0.1 0.2 0.3 0.3 0.1 0.2 0.1 0.3 0.3 0.3 0.5 0.6v0.1q0.9 1.2 1.5 2.5 0.1-0.1 0.1-0.1 0.3-0.2 0.6-0.4 0 0 0.1-0.1 0.3-0.2 0.6-0.4 0.1 0 0.2-0.1 0.4-0.2 0.9-0.4 0.1-0.1 0.2-0.1 0.4-0.2 0.8-0.4 0.1 0 0.2 0 0.6-0.2 1.1-0.4 0.2 0 0.3-0.1 0.5-0.1 1.1-0.2 0.1 0 0.2 0 0.6-0.2 1.3-0.2 0.2 0 0.4-0.1 0.7 0 1.5 0 0.8 0 1.6 0 0.1 0.1 0.3 0.1 0.7 0 1.3 0.2 0.1 0 0.2 0 0.6 0.1 1.1 0.2 0.2 0.1 0.3 0.1 0.6 0.2 1.1 0.4 0.1 0 0.2 0 0.5 0.2 0.9 0.4 0.1 0 0.1 0.1 0.5 0.2 0.9 0.4 0.1 0.1 0.2 0.1 0.3 0.2 0.7 0.4 0 0.1 0 0.1 0.4 0.2 0.6 0.4 0.1 0 0.1 0.1 0.9-1.8 2.1-3.3v-0.1q0.2-0.3 0.5-0.6 0-0.1 0.1-0.2 0.2-0.1 0.3-0.3l0.1-0.1q0.3-0.4 0.6-0.7 0.8-0.9 1.7-1.7 0.3-0.3 0.6-0.6l0.1-0.1c1.9-1.8 3.1-3 3.1-4.7 0-5.4-5.4-8.3-10.4-8.3-2.6 0-3.1 1.4-3.8 3.8-0.6 1.9-1.3 4.5-4.6 4.5-3.3 0-4-2.6-4.6-4.5-0.6-2.4-1.2-3.8-3.7-3.8-5.1 0-10.4 2.9-10.4 8.3 0 1.7 1.2 2.9 3 4.7zm23.7 9q-0.3-0.2-0.6-0.4-0.2 0-0.4-0.1-0.3-0.2-0.6-0.4-0.2-0.1-0.4-0.2-0.4-0.1-0.7-0.2-0.3-0.1-0.5-0.2-0.4-0.2-0.9-0.3-0.2 0-0.5-0.1-0.5-0.1-1.1-0.2-0.2 0-0.5-0.1-1.8-0.1-3.6 0-0.2 0.1-0.5 0.1-0.5 0.1-1 0.2-0.3 0.1-0.6 0.1-0.4 0.1-0.8 0.3-0.3 0.1-0.5 0.2-0.4 0.1-0.8 0.2-0.2 0.1-0.4 0.2-0.3 0.2-0.6 0.4-0.2 0.1-0.3 0.1-0.4 0.2-0.6 0.4-0.1 0.1-0.2 0.2-0.3 0.2-0.6 0.4 1 2.4 1.5 4.9 1.4-0.7 3-1 0.1-0.1 0.2-0.1 0.3-0.1 0.7-0.1 0.2-0.1 0.3-0.1 0.4 0 0.7-0.1 0.1 0 0.3 0 0.1 0 0.1 0 0.1 0 0.1 0h0.1q0.2-0.1 0.5-0.1 0.6 0 1.2 0 0.6 0 1.2 0 0.3 0 0.5 0.1h0.1q0.1 0 0.2 0 0.2 0 0.4 0 0.3 0.1 0.6 0.1 0.2 0 0.4 0.1 0.3 0 0.7 0.1 0.1 0 0.1 0.1 1.6 0.3 3 1 0.6-2.5 1.5-4.9-0.2-0.2-0.6-0.4 0-0.1-0.1-0.2zm14.3 2.1c-0.8-1.3-1.3-2.8-1.4-4.3 0-1.7-1.5-3.2-4.4-4.7q0 0-0.1 0.1l-0.5 0.4q-0.2 0.3-0.5 0.6-0.1 0.1-0.2 0.2-0.2 0.2-0.4 0.4-0.1 0.1-0.2 0.3-0.2 0.2-0.4 0.4-0.1 0.2-0.2 0.3-0.6 0.7-1.2 1.6-0.1 0.1-0.1 0.1-0.3 0.4-0.5 0.9-0.1 0-0.1 0.1-0.6 1.1-1.2 2.2v0.1q-0.3 0.7-0.5 1.4-0.1 0.2-0.2 0.4-0.1 0.4-0.3 0.9-0.1 0.3-0.2 0.7 0 0.2-0.1 0.4c0.9-0.4 1.9-0.6 2.9-0.6 0.6 0 1.1 0.4 1.1 1 0 0.6-0.5 1.1-1.1 1.1-1-0.1-1.9 0.2-2.7 0.8q0.8 0.6 1.4 1.2c0.4 0.4 0.4 1.1-0.1 1.5-0.4 0.4-1 0.3-1.4-0.1q-1-0.9-2.1-1.6-0.1 0-0.1 0-1.9-1-4-1.5-0.1 0-0.2 0-0.4-0.1-0.8-0.2h-0.1q-0.2 0-0.3 0-0.4-0.1-0.7-0.1-0.1 0-0.2 0-0.6 0-1.2 0-0.6 0-1.2 0-0.1 0-0.2 0-0.3 0.1-0.6 0.1-0.2 0-0.4 0-0.1 0-0.1 0.1-0.4 0-0.8 0.1-0.1 0-0.1 0-0.1 0-0.1 0-0.5 0.1-0.9 0.3h-0.1q-1.5 0.4-3 1.2-1.2 0.7-2.1 1.6c-0.4 0.4-1.1 0.5-1.5 0.1-0.4-0.4-0.5-1.1-0.1-1.5q0.7-0.6 1.4-1.2c-0.8-0.6-1.7-0.9-2.7-0.8-0.6 0-1-0.5-1-1.1 0-0.6 0.4-1 1-1 1 0 2 0.2 2.9 0.6q0-0.2-0.1-0.4-0.1-0.4-0.2-0.7-0.1-0.5-0.3-0.9-0.1-0.2-0.1-0.4-0.3-0.7-0.6-1.4-1.2-2.8-3.1-5.1 0 0-0.1-0.1-0.2-0.3-0.5-0.5 0-0.1-0.1-0.2-0.2-0.3-0.4-0.5-0.1-0.1-0.2-0.2-0.3-0.3-0.6-0.5l-0.5-0.5-0.1-0.1c-2.9 1.5-4.3 3-4.3 4.7-0.2 1.5-0.7 3-1.5 4.3-1.8 3.1-2.7 6.6-2.7 10.2 0 2.5 0.6 5 1.9 7.2 0.7 1.3 1.1 2.7 1.2 4.2 0 3 2.7 12.5 7.3 12.5 2.2-0.1 4.3-0.6 6.3-1.4v-8.1c-1.2 1-2.7 1.6-4.2 1.5-0.6 0-1-0.5-1-1 0-0.6 0.4-1.1 1-1.1 1.1 0.1 2.1-0.3 2.9-1.1q-0.9-0.5-1.6-1.3c-0.4-0.4-0.3-1.1 0.1-1.5 0.4-0.3 1.1-0.3 1.5 0.1q1.2 1.2 2.7 1.9 0.1 0 0.1 0 1.5 0.8 3.2 1.2 0 0 0.1 0 0.8 0.2 1.6 0.3 0.1 0 0.3 0 0.8 0.1 1.6 0.1 0.9 0 1.7-0.1 0.1 0 0.3 0 0.8-0.1 1.5-0.3 0.1 0 0.2 0 0.8-0.2 1.5-0.5 0.1 0 0.1 0 0.8-0.3 1.5-0.7h0.1q1.5-0.7 2.8-1.9c0.4-0.4 1-0.4 1.4-0.1 0.5 0.4 0.5 1.1 0.1 1.5q-0.7 0.8-1.6 1.3c0.8 0.8 1.8 1.2 2.9 1.1 0.6 0 1.1 0.5 1.1 1.1 0 0.5-0.5 1-1.1 1-1.5 0.1-3-0.5-4.1-1.5v8.1c2 0.8 4.1 1.3 6.2 1.4 4.6 0 7.3-9.5 7.3-12.5 0.1-1.5 0.5-2.9 1.3-4.2 1.2-2.2 1.8-4.7 1.8-7.2 0-3.6-0.9-7.1-2.7-10.2zm-18.9 25.4q-0.2 0.1-0.4 0.1-0.5 0.1-1 0.1-0.3 0.1-0.5 0.1-0.7 0-1.5 0.1-0.8-0.1-1.5-0.1-0.2 0-0.4-0.1-0.6 0-1.1-0.1-0.2 0-0.4-0.1-1.4-0.2-2.8-0.7 0 0 0 0v3.4q0.2 0 0.5 0.1 0.4 0.1 0.7 0.2 0.5 0.1 1 0.1 0.4 0.1 0.7 0.1 0.6 0.1 1.2 0.2 0.2 0 0.4 0 1.7 0.1 3.4 0 0.2 0 0.5 0 0.6-0.1 1.2-0.2 0.3 0 0.6-0.1 0.5 0 1-0.1 0.4-0.1 0.7-0.2 0.3-0.1 0.6-0.1v-3.4q-0.1 0-0.1 0-1.3 0.5-2.8 0.7zm1.9 5q-0.5 0.1-1.1 0.2-0.4 0.1-0.7 0.1-0.5 0.1-1.1 0.1-0.3 0.1-0.7 0.1-0.6 0-1.2 0-0.3 0-0.5 0-0.2 0-0.4 0-0.7 0-1.3 0-0.3 0-0.7-0.1-0.5 0-1.1-0.1-0.3 0-0.7-0.1-0.5-0.1-1.1-0.2-0.3-0.1-0.6-0.1-0.2-0.1-0.3-0.1v3.3c0 0.3 0.2 0.6 0.6 0.6h11.3c0.3 0 0.6-0.3 0.6-0.6v-3.3q-0.2 0-0.4 0.1-0.3 0-0.6 0.1z"/><path class="f" d="m137.3 289.9h119.4c9.6 0 17.3 8.1 17.3 18.1 0 10-7.7 18-17.3 18h-119.4c-9.5 0-17.3-8-17.3-18 0-10 7.8-18.1 17.3-18.1z"/><text style="transform:matrix(1,0,0,1,197,312)" ><tspan x="-41.2" y="0" class="g" dx="0 1 1 1 1 1 1 1 1 1" >KNOW MORE
</tspan></text></svg>