<svg version="1.2" xmlns="http://www.w3.org/2000/svg" viewBox="0 0 395 338" width="395" height="338"><defs><filter x="-50%" y="-50%" width="200%" height="200%" id="f1" ><feDropShadow dx="-2.4492935982947064e-16" dy="4" stdDeviation="5.833333333333334" flood-color="#1f345d" flood-opacity=".1"/></filter><linearGradient id="P" gradientUnits="userSpaceOnUse"/><linearGradient id="g1" x1="167" y1="66" x2="227" y2="126" href="#P"><stop stop-color="#02cfe4"/><stop offset="1" stop-color="#1673dc"/></linearGradient><filter x="-50%" y="-50%" width="200%" height="200%" id="f2" ><feDropShadow dx="-1.2246467991473532e-16" dy="2" stdDeviation="4.166666666666667" flood-color="#2b4984" flood-opacity=".1"/></filter></defs><style>tspan{white-space:pre}.a{filter:url(#f1);fill:#fff}.b{font-size: 15px;line-height: 22px;fill: #333333;font-weight: 300;font-family: "Muli-Light", "Muli"}.c{font-size: 20px;line-height: 22px;text-transform: uppercase;fill: #014d9f;font-weight: 600;font-family: "Muli-SemiBold", "Muli"}.d{fill:#3d90ef;stroke:#00cade;stroke-linejoin:round;stroke-opacity:.5;stroke-width:3}.e{fill:url(#g1)}.f{filter:url(#f2);fill:#fff}.g{font-size: 12px;line-height: 22px;text-transform: uppercase;fill: #00b6cf;font-weight: 400;font-family: "Muli", "Muli"}</style><path class="a" d="m21 12h353c2.8 0 5 2.2 5 5v286c0 2.8-2.2 5-5 5h-353c-2.8 0-5-2.2-5-5v-286c0-2.8 2.2-5 5-5z"/><text style="transform:matrix(1,0,0,1,31.777,205)" ><tspan x="19.7" y="11" class="b" dx="0" >H</tspan><tspan  y="11" class="b" dx="0 0 0 0 0 0 0 0 0 0 0 0 0 0 0 0 0 0 0 0 0 0 0 0 0 0 0 0 0 0 0 0 0 0 0 0 0 0 0 0 0" >ard deposits of salts and other minerals </tspan><tspan x="9" y="33" class="b" dx="0 0 0 0 0 0 0 0 0 0 0 0 0 0 0 0 0 0 0 0 0 0 0 0 0 0 0 0 0 0 0 0 0 0 0 0 0 0 0 0 0 0 0 0 0 0" >formed within the kidney or urinary tract are </tspan><tspan x="73.2" y="55" class="b" dx="0 0 0 0 0 0 0 0 0 0 0 0 0 0 0 0 0 0 0 0 0 0 0 0 0 0 0" >termed as Kidney stones...
</tspan></text><text style="transform:matrix(1,0,0,1,197,185)" ><tspan x="-82.7" y="0" class="c" dx="0" >K</tspan><tspan  y="0" class="c" dx="0 1 1 1 1 1 1 1 1 1 1 1 1" >IDNEY STONES
</tspan></text><path class="d" d="m197 37c31.5 0 57 25.5 57 57 0 31.5-25.5 57-57 57-31.5 0-57-25.5-57-57 0-31.5 25.5-57 57-57z"/><path fill-rule="evenodd" class="e" d="m213.9 66c-5.2 0-10.9 4.2-11.2 11.1-0.1 2.2 0.9 4.4 1.9 6.7q0.3 0.8 0.7 1.6c1-4.9 5.3-8.8 10-8.8 0.6 0 1.1 0.6 1.1 1.2 0 0.6-0.5 1.1-1.1 1.1-4.2 0-8 4.2-8 8.9 0 0.5-0.4 0.9-0.8 1-3.1-1.4-6.1-6.2-6.1-12.1 0-0.6-0.5-1.1-1.1-1.1-0.6 0-1.2 0.5-1.2 1.1 0 5.7 2.6 10.9 6 13.4-3.2 1.2-5.7 3.6-7.1 6.6-1.4-3-3.9-5.4-7.1-6.6 3.4-2.5 6-7.7 6-13.4 0-0.6-0.6-1.1-1.2-1.1-0.6 0-1.1 0.5-1.1 1.1 0 5.9-3 10.7-6.1 12.1-0.4-0.1-0.8-0.5-0.8-1 0-4.7-3.8-8.9-8-8.9-0.6 0-1.1-0.5-1.1-1.1 0-0.6 0.5-1.2 1.1-1.2 4.7 0 9 3.9 10 8.8q0.4-0.8 0.7-1.6c1-2.3 2-4.5 1.9-6.7-0.3-6.9-6-11.1-11.2-11.1-8.3 0-15.1 11.3-15.1 25.2 0 13.9 6.8 25.2 15.1 25.2 3.1 0 8.8 0 11.1-6.5 0.9-2.5-0.2-5.6-1.5-9.1-0.7-1.7-1.4-3.6-1.9-5.5-1.2 4.2-4.6 7.7-9.1 7.7-0.6 0-1.1-0.5-1.1-1.1 0-0.7 0.5-1.2 1.1-1.2 4.4 0 7.4-4.7 7.4-9.1 5.4 0.3 9.8 4.8 9.8 10.3v23c0 0.6 0.5 1.1 1.1 1.1 0.6 0 1.1-0.5 1.1-1.1v-23c0-5.5 4.4-10 9.8-10.3 0 4.4 3 9.1 7.4 9.1 0.6 0 1.1 0.5 1.1 1.2 0 0.6-0.5 1.1-1.1 1.1-4.5 0-7.9-3.5-9.1-7.7-0.5 1.9-1.2 3.8-1.9 5.5-1.3 3.5-2.4 6.6-1.5 9.1 2.3 6.5 8 6.5 11.1 6.5 8.3 0 15.1-11.3 15.1-25.2 0-13.9-6.8-25.2-15.1-25.2zm-35.2 25.6c-0.6 0-1.1-0.5-1.1-1.1 0-0.7 0.5-1.2 1.1-1.2h6.9c-0.7 0-1.2 0.5-1.2 1.2 0 0.6 0.5 1.1 1.2 1.1zm36.5 0h-6.8c0.6 0 1.1-0.5 1.1-1.1 0-0.7-0.5-1.2-1.1-1.2h6.8c0.7 0 1.2 0.5 1.2 1.2 0 0.6-0.5 1.1-1.2 1.1z"/><path class="f" d="m137.3 289.9h119.4c9.6 0 17.3 8.1 17.3 18.1 0 10-7.7 18-17.3 18h-119.4c-9.5 0-17.3-8-17.3-18 0-10 7.8-18.1 17.3-18.1z"/><text style="transform:matrix(1,0,0,1,197,312)" ><tspan x="-41.2" y="0" class="g" dx="0 1 1 1 1 1 1 1 1 1" >KNOW MORE
</tspan></text></svg>